# xmcd
#
# Track frame offsets:
#	150
#	11910
#	31552
#	42960
#	60330
#	74460
#	92335
#	102687
#	113185
#	120360
#	135975
#	148760
#	162467
#	178667
#	184260
#	192442
#	209575
#	225332
#
# Disc length: 3249 seconds
#
# Revision: 1
# Processed by: cddbd v1.4PL0 Copyright (c) Steve Scherf et al.
# Submitted via: audiograbber 1.82.00
#
DISCID=f80caf12
DTITLE=Vic Damone - Eighteen Classic Love Songs
DYEAR=1987
DGENRE=Soul
TTITLE0=The look of love
TTITLE1=Little green apples
TTITLE2=The song is you
TTITLE3=Can't take my eyes off you
TTITLE4=By the time i get to Phoenix
TTITLE5=Didn't we
TTITLE6=When you laughed all your laughter
TTITLE7=All I need is a girl like you
TTITLE8=The moment of truth
TTITLE9=La Vita
TTITLE10=For once in my live
TTITLE11=They call the wind Maria
TTITLE12=Here's that rainy day
TTITLE13=Time after time
TTITLE14=Come back to me
TTITLE15=Don't let me go Lover
TTITLE16=Where
TTITLE17=MacArthur Park
EXTD=
EXTT0=
EXTT1=
EXTT2=
EXTT3=
EXTT4=
EXTT5=
EXTT6=
EXTT7=
EXTT8=
EXTT9=
EXTT10=
EXTT11=
EXTT12=
EXTT13=
EXTT14=
EXTT15=
EXTT16=
EXTT17=
PLAYORDER=
